<svg width="773" height="1024" viewBox="0 0 773 1024" fill="none" xmlns="http://www.w3.org/2000/svg">
<rect width="773" height="1024" fill="#2C73EB"/>
<path d="M91.8963 94V72.1818H96.5092V90.1967H105.863V94H91.8963ZM116.226 94.3196C114.571 94.3196 113.14 93.968 111.933 93.2649C110.732 92.5547 109.806 91.5675 109.152 90.3033C108.499 89.032 108.172 87.5582 108.172 85.8821C108.172 84.1918 108.499 82.7145 109.152 81.4503C109.806 80.179 110.732 79.1918 111.933 78.4886C113.14 77.7784 114.571 77.4233 116.226 77.4233C117.881 77.4233 119.308 77.7784 120.509 78.4886C121.716 79.1918 122.646 80.179 123.3 81.4503C123.953 82.7145 124.28 84.1918 124.28 85.8821C124.28 87.5582 123.953 89.032 123.3 90.3033C122.646 91.5675 121.716 92.5547 120.509 93.2649C119.308 93.968 117.881 94.3196 116.226 94.3196ZM116.247 90.804C117 90.804 117.629 90.5909 118.133 90.1648C118.637 89.7315 119.017 89.142 119.273 88.3963C119.536 87.6506 119.667 86.8018 119.667 85.8501C119.667 84.8984 119.536 84.0497 119.273 83.304C119.017 82.5582 118.637 81.9687 118.133 81.5355C117.629 81.1023 117 80.8857 116.247 80.8857C115.487 80.8857 114.848 81.1023 114.33 81.5355C113.818 81.9687 113.431 82.5582 113.169 83.304C112.913 84.0497 112.785 84.8984 112.785 85.8501C112.785 86.8018 112.913 87.6506 113.169 88.3963C113.431 89.142 113.818 89.7315 114.33 90.1648C114.848 90.5909 115.487 90.804 116.247 90.804ZM134.603 100.477C133.133 100.477 131.872 100.275 130.821 99.87C129.777 99.4723 128.946 98.929 128.328 98.2401C127.71 97.5511 127.309 96.777 127.124 95.9176L131.322 95.353C131.45 95.6797 131.652 95.9851 131.929 96.2692C132.206 96.5533 132.572 96.7805 133.026 96.951C133.488 97.1286 134.049 97.2173 134.71 97.2173C135.697 97.2173 136.51 96.9759 137.149 96.4929C137.796 96.017 138.119 95.218 138.119 94.0959V91.1023H137.927C137.728 91.5568 137.43 91.9865 137.032 92.3913C136.634 92.7962 136.123 93.1264 135.498 93.3821C134.873 93.6378 134.127 93.7656 133.261 93.7656C132.032 93.7656 130.914 93.4815 129.905 92.9134C128.904 92.3381 128.105 91.4609 127.508 90.282C126.919 89.0959 126.624 87.5973 126.624 85.7862C126.624 83.9325 126.926 82.3842 127.529 81.1413C128.133 79.8984 128.936 78.968 129.937 78.3501C130.945 77.7322 132.05 77.4233 133.25 77.4233C134.166 77.4233 134.933 77.5795 135.551 77.892C136.169 78.1974 136.666 78.581 137.043 79.0426C137.426 79.4972 137.721 79.9446 137.927 80.3849H138.097V77.6364H142.604V94.1598C142.604 95.5518 142.263 96.7166 141.581 97.6541C140.899 98.5916 139.955 99.2947 138.747 99.7635C137.547 100.239 136.166 100.477 134.603 100.477ZM134.699 90.3565C135.431 90.3565 136.048 90.1754 136.553 89.8132C137.064 89.4439 137.455 88.9183 137.725 88.2365C138.002 87.5476 138.14 86.7237 138.14 85.7649C138.14 84.8061 138.005 83.9751 137.735 83.272C137.465 82.5618 137.075 82.0114 136.563 81.6207C136.052 81.2301 135.431 81.0348 134.699 81.0348C133.953 81.0348 133.325 81.2372 132.813 81.642C132.302 82.0398 131.915 82.5937 131.652 83.304C131.389 84.0142 131.258 84.8345 131.258 85.7649C131.258 86.7095 131.389 87.5263 131.652 88.2152C131.922 88.897 132.309 89.4261 132.813 89.8026C133.325 90.1719 133.953 90.3565 134.699 90.3565ZM153.609 94.3196C151.954 94.3196 150.523 93.968 149.316 93.2649C148.115 92.5547 147.188 91.5675 146.535 90.3033C145.882 89.032 145.555 87.5582 145.555 85.8821C145.555 84.1918 145.882 82.7145 146.535 81.4503C147.188 80.179 148.115 79.1918 149.316 78.4886C150.523 77.7784 151.954 77.4233 153.609 77.4233C155.264 77.4233 156.691 77.7784 157.892 78.4886C159.099 79.1918 160.029 80.179 160.683 81.4503C161.336 82.7145 161.663 84.1918 161.663 85.8821C161.663 87.5582 161.336 89.032 160.683 90.3033C160.029 91.5675 159.099 92.5547 157.892 93.2649C156.691 93.968 155.264 94.3196 153.609 94.3196ZM153.63 90.804C154.383 90.804 155.012 90.5909 155.516 90.1648C156.02 89.7315 156.4 89.142 156.656 88.3963C156.919 87.6506 157.05 86.8018 157.05 85.8501C157.05 84.8984 156.919 84.0497 156.656 83.304C156.4 82.5582 156.02 81.9687 155.516 81.5355C155.012 81.1023 154.383 80.8857 153.63 80.8857C152.87 80.8857 152.231 81.1023 151.713 81.5355C151.201 81.9687 150.814 82.5582 150.551 83.304C150.296 84.0497 150.168 84.8984 150.168 85.8501C150.168 86.8018 150.296 87.6506 150.551 88.3963C150.814 89.142 151.201 89.7315 151.713 90.1648C152.231 90.5909 152.87 90.804 153.63 90.804Z" fill="white"/>
<path d="M338.338 511.654C338.338 511.654 335.76 516.787 338.338 521.055H284.011V511.654H338.338Z" fill="#DBDCF1"/>
<path d="M339.228 521.38C339.228 521.596 339.134 521.812 338.994 521.974C338.853 522.136 338.666 522.244 338.478 522.244H257.668C256.215 522.244 254.996 520.893 254.996 519.164V513.869C254.996 512.194 256.168 510.79 257.668 510.79H338.478C338.9 510.79 339.228 511.168 339.228 511.654C339.228 512.14 338.9 512.519 338.478 512.519H288.276C287.292 512.519 286.495 513.437 286.495 514.572V518.516C286.495 519.651 287.292 520.569 288.276 520.569H338.478C338.9 520.515 339.228 520.893 339.228 521.38Z" fill="#EE504F"/>
<path d="M339.228 521.218C339.275 521.488 339.181 521.812 339.041 521.974C338.9 522.136 338.713 522.244 338.525 522.244H287.854C286.167 522.244 284.808 520.677 284.808 518.732V514.302C284.808 512.356 286.167 510.79 287.854 510.79H338.525C338.9 510.79 339.228 511.114 339.275 511.546C339.322 512.032 338.994 512.465 338.525 512.465H288.323C287.339 512.465 286.542 513.383 286.542 514.518V518.462C286.542 519.597 287.339 520.515 288.323 520.515H338.525C338.806 520.515 339.134 520.785 339.228 521.218Z" fill="#D34848"/>
<path d="M338.009 540.614C338.009 540.614 335.338 548.449 338.009 555.311H297.182V540.614H338.009Z" fill="#DBDCF1"/>
<path d="M339.462 555.527C339.462 555.851 339.369 556.175 339.181 556.391C338.994 556.608 338.759 556.716 338.478 556.716H252.277C250.027 556.716 248.152 554.608 248.152 551.961V543.748C248.152 541.155 249.98 538.994 252.277 538.994H338.478C338.994 538.994 339.462 539.48 339.462 540.074C339.462 540.723 339.041 541.209 338.525 541.209H301.917C300.089 541.209 298.589 542.938 298.589 545.045V550.502C298.589 552.609 300.089 554.338 301.917 554.338H338.478C338.994 554.5 339.462 554.933 339.462 555.527Z" fill="#197A83"/>
<path d="M339.463 555.527C339.463 555.851 339.369 556.175 339.181 556.391C338.994 556.608 338.759 556.716 338.478 556.716H301.026C298.495 556.716 296.432 554.338 296.432 551.421V544.343C296.432 541.425 298.495 539.048 301.026 539.048H338.478C338.994 539.048 339.463 539.534 339.463 540.128C339.463 540.777 339.041 541.263 338.525 541.263H301.917C300.089 541.263 298.589 542.992 298.589 545.099V550.556C298.589 552.663 300.089 554.392 301.917 554.392H338.478C338.994 554.5 339.463 554.933 339.463 555.527Z" fill="#156468"/>
<path d="M334.775 544.126H311.995V544.289H334.775V544.126Z" fill="#373133"/>
<path d="M325.072 544.126L326.76 552.879L328.494 549.692V544.775L325.072 544.126Z" fill="#AFAFD5"/>
<path d="M333.51 546.396V552.879L330.181 550.016L326.713 552.879V546.396C326.713 544.829 325.072 544.126 325.072 544.126H332.385C333.51 544.505 333.51 546.18 333.51 546.396Z" fill="#6D68E0"/>
<path d="M333.51 546.396H326.76V546.342C326.76 544.775 325.119 544.072 325.119 544.072H332.431C333.51 544.505 333.51 546.18 333.51 546.396Z" fill="#5A5ABA"/>
<path d="M252.137 523.055C252.137 523.055 254.855 531.591 252.137 538.021H305.713V523.055H252.137Z" fill="#DBDCF1"/>
<path d="M342.603 527.809V533.428C342.603 536.562 340.4 539.102 337.681 539.102H252.23C251.808 539.102 251.48 538.723 251.48 538.237V538.183C251.48 537.697 251.808 537.319 252.23 537.319H300.792C302.713 537.319 304.307 535.482 304.307 533.266V528.025C304.307 525.81 302.713 523.973 300.792 523.973H252.23C251.996 523.973 251.808 523.865 251.668 523.703C251.527 523.541 251.433 523.271 251.433 523C251.48 522.514 251.808 522.19 252.23 522.19H337.681C340.4 522.136 342.603 524.675 342.603 527.809Z" fill="#F1884F"/>
<path d="M306.51 527.269V534.023C306.51 536.832 304.542 539.102 302.104 539.102H252.277C251.855 539.102 251.527 538.723 251.527 538.237V538.183C251.527 537.697 251.855 537.319 252.277 537.319H300.839C302.76 537.319 304.354 535.482 304.354 533.266V528.025C304.354 525.81 302.76 523.973 300.839 523.973H252.277C252.043 523.973 251.855 523.865 251.715 523.703C251.574 523.541 251.48 523.271 251.48 523.001C251.527 522.514 251.855 522.19 252.277 522.19H302.104C304.542 522.136 306.51 524.459 306.51 527.269Z" fill="#D37146"/>
<path d="M282.698 533.05H259.918V533.212H282.698V533.05Z" fill="#373133"/>
<path d="M277.355 532.996H274.449V537.265H277.355V532.996Z" fill="#AFAFD5"/>
<path d="M275.667 536.724V550.286L272.48 546.99L269.433 550.286V537.265L275.667 536.724Z" fill="#A82329"/>
<path d="M277.355 532.996H271.167C271.167 532.996 271.167 536.184 269.433 537.265H275.62C275.62 537.265 277.355 536.724 277.355 532.996Z" fill="#EE504F"/>
<path d="M326.385 494.472C326.385 494.472 324.275 501.334 326.385 508.899H272.667V494.743L326.385 494.472Z" fill="#DBDCF1"/>
<path d="M275.152 492.473H326.478C327.088 492.473 327.557 493.014 327.557 493.716C327.557 494.418 327.088 494.959 326.478 494.959H275.667C274.214 494.959 272.995 496.309 272.995 498.038V505.224C272.995 506.899 274.167 508.304 275.667 508.304H326.478C327.088 508.304 327.557 508.844 327.557 509.547V509.655C327.557 510.357 327.088 510.898 326.478 510.898H275.152C273.042 510.898 271.308 508.899 271.308 506.467V497.012C271.308 494.472 273.042 492.473 275.152 492.473Z" fill="#6D68E0"/>
<path d="M319.541 504.036H296.761V504.198H319.541V504.036Z" fill="#373133"/>
<path d="M312.135 504.036H309.745V508.25H312.135V504.036Z" fill="#AFAFD5"/>
<path d="M311.385 507.764V518.786L314.244 515.49L317.151 518.786V508.304L311.385 507.764Z" fill="#156468"/>
<path d="M309.745 504.036H315.416C315.416 504.036 315.416 507.224 317.151 508.25H311.479C311.479 508.304 309.745 507.764 309.745 504.036Z" fill="#197A83"/>
<path d="M81.4691 502.037C81.4691 502.037 77.1567 573.465 152.014 561.524L156.327 573.411C156.327 573.411 177.607 526.512 142.546 518.84C135.562 517.327 114.14 517.868 114.14 517.868L81.4691 502.037Z" fill="#5CC2AD"/>
<path d="M92.6719 634.952C92.6719 634.952 84.0471 640.895 68.5788 666.668L62.532 652.782L83.2034 627.009L92.6719 634.952Z" fill="black"/>
<path d="M68.5788 666.668C68.5788 666.668 51.3761 645.812 60.8446 627.009C60.8446 627.009 69.4694 610.152 84.9377 612.151C84.9377 612.151 111.609 578.436 144.327 599.238C144.327 599.238 151.217 643.867 85.8284 639.923C85.7815 639.869 64.2664 639.869 68.5788 666.668Z" fill="#5CC2AD"/>
<path d="M67.8756 666.83C64.2663 648.135 68.9537 634.033 73.5473 625.551C78.5159 616.365 84.2346 611.611 84.5158 611.449L85.3127 612.799C85.2658 612.853 79.5471 617.554 74.7191 626.523C70.313 634.736 65.7663 648.406 69.2349 666.506L67.8756 666.83Z" fill="#17311D"/>
<path d="M176.576 609.666C176.576 609.666 182.623 586.865 201.513 588.81C201.513 588.81 211.919 571.25 231.653 586.811C238.543 592.268 244.543 598.697 241.965 623.497C241.965 623.497 235.496 611.124 218.716 610.584C207.325 610.314 176.576 609.666 176.576 609.666Z" fill="#5CC2AD"/>
<path d="M241.309 623.768C235.825 604.857 225.231 596.644 217.263 593.078C208.638 589.242 201.279 589.836 201.185 589.836L201.091 588.215C201.419 588.161 208.872 587.567 217.778 591.511C225.981 595.185 236.996 603.668 242.621 623.173L241.309 623.768Z" fill="#17311D"/>
<path d="M159.795 656.78H131.39C125.343 656.78 119.999 660.292 116.437 663.48C113.39 666.182 111.609 668.667 111.609 668.667C111.046 660.616 113.999 653.052 118.077 647.757C120.046 645.218 122.296 643.219 124.499 641.922C151.264 626.469 159.795 656.78 159.795 656.78Z" fill="#197A83"/>
<path d="M148.592 656.834C145.311 637.221 132.046 639.058 131.952 639.112L131.812 638.032C131.952 638.032 146.061 636.033 149.53 656.618L148.592 656.834Z" fill="#020403"/>
<path d="M149.734 653.819L147.422 654.262L155.263 708.63L157.575 708.187L149.734 653.819Z" fill="#22452A"/>
<path d="M163.545 709.514L161.201 709.136C164.904 679.365 164.155 662.508 162.936 649.972C160.826 628.252 154.827 615.987 150.139 609.449C145.124 602.426 140.53 600.534 140.483 600.48L141.28 597.941C141.467 598.049 146.389 600.048 151.827 607.558C156.748 614.366 163.076 627.172 165.279 649.648C166.498 662.4 167.248 679.419 163.545 709.514Z" fill="#5CC2AD"/>
<path d="M163.358 652.134C159.983 601.939 153.983 561.632 153.889 561.254L156.186 560.768C156.233 561.146 162.279 601.561 165.654 651.918L163.358 652.134Z" fill="#5CC2AD"/>
<path d="M174.279 712.108L171.982 711.567C186.419 633.277 186.607 603.992 186.607 603.722H188.951C188.904 603.992 188.763 633.493 174.279 712.108Z" fill="#5CC2AD"/>
<path d="M156.092 573.087C156.045 572.763 151.592 540.669 132.374 530.079C127.124 527.161 111.843 518.246 111.703 518.192L112.359 516.733C112.499 516.841 127.78 525.756 132.983 528.62C152.858 539.588 157.405 572.547 157.451 572.871L156.092 573.087Z" fill="#17311D"/>
<path d="M116.437 663.48C113.39 666.182 111.609 668.667 111.609 668.667C111.046 660.616 113.999 653.052 118.077 647.757C117.234 651.539 116.062 657.861 116.437 663.48Z" fill="#020403"/>
<path d="M123.234 703.895H205.825L193.779 802.069H135.28L123.234 703.895Z" fill="#197A83"/>
<path d="M259.824 563.091L202.872 802.015H191.951L248.949 563.091H259.824Z" fill="#AFAFD5"/>
<path d="M248.949 563.091L305.901 802.015H316.822L259.824 563.091H248.949Z" fill="#AFAFD5"/>
<path d="M594.737 563.091H493.209V802.015H594.737V563.091Z" fill="#AFAFD5"/>
<path d="M295.589 563.091L352.587 802.015H363.462L306.51 563.091H295.589Z" fill="#AFAFD5"/>
<path d="M299.854 563.091L356.806 802.015H367.727L310.729 563.091H299.854Z" fill="#DBDCF1"/>
<path d="M306.51 563.091L249.512 802.015H238.637L295.589 563.091H306.51Z" fill="#AFAFD5"/>
<path d="M310.729 563.091L253.777 802.015H242.856L299.854 563.091H310.729Z" fill="#DBDCF1"/>
<path d="M273.792 556.824V569.359H592.581V802.015H684.126V556.824H273.792Z" fill="#DBDCF1"/>
<path d="M287.714 556.824H216.794V569.413H287.714V556.824Z" fill="#AFAFD5"/>
<path d="M599.284 574.978V795.045H679.298V574.978H599.284ZM676.86 792.235H601.722V751.388H625.955V758.736H654.97V751.388H676.907V792.235H676.86ZM676.86 748.578H601.722V705.246H625.955V712.594H654.97V705.246H676.907V748.578H676.86ZM676.86 702.49H601.722V662.886H625.955V669.964H654.97V662.886H676.907V702.49H676.86ZM676.86 660.076H601.722V620.742H625.955V628.09H654.97V620.742H676.907V660.076H676.86ZM676.86 617.932H601.722V577.734H625.955V584.703H654.97V577.734H676.907V617.932H676.86Z" fill="#AFAFD5"/>
<path d="M391.867 513.275L386.243 557.04H413.898L419.523 513.275H391.867Z" fill="#373133"/>
<path d="M328.822 416.506L334.494 512.789C334.728 516.895 337.681 520.083 341.244 520.083H471.881C475.819 520.083 478.912 516.247 478.631 511.762L472.959 415.48C472.725 411.373 469.772 408.185 466.209 408.185H335.572C331.682 408.185 328.588 412.022 328.822 416.506Z" fill="#373133"/>
<path d="M397.024 513.275L391.399 557.04H419.054L424.679 513.275H397.024Z" fill="#6D68E0"/>
<path d="M477.553 520.137H346.916C343.353 520.137 340.4 516.949 340.166 512.843L339.463 501.118L334.447 416.56C334.166 412.022 337.306 408.185 341.197 408.185H471.834C475.397 408.185 478.35 411.373 478.584 415.48L483.646 501.118L484.256 511.762C484.584 516.301 481.49 520.137 477.553 520.137Z" fill="#6D68E0"/>
<path d="M346.494 500.524L341.994 423.476C341.759 419.586 344.572 416.29 348.087 416.29H466.162C469.397 416.29 472.068 419.046 472.256 422.558L476.803 500.524H346.494Z" fill="white"/>
<path d="M380.852 550.556H349.681V557.04H380.852V550.556Z" fill="#373133"/>
<path d="M462.413 550.556H379.212V557.04H462.413V550.556Z" fill="#6D68E0"/>
<path d="M373.54 509.817H354.134V524.405C354.134 524.405 354.134 530.133 359.103 530.673H378.977C378.977 530.673 374.665 530.403 373.774 524.675L373.54 509.817Z" fill="#FC2B45"/>
<path d="M397.445 503.874H378.04V518.462C378.04 518.462 378.04 524.189 383.008 524.729H402.883C402.883 524.729 398.57 524.459 397.68 518.732L397.445 503.874Z" fill="#FD9E28"/>
<path d="M371.333 416.158L368.058 416.4L372.745 500.681L376.019 500.439L371.333 416.158Z" fill="#DBDCF1"/>
<path d="M439.303 416.158L436.028 416.4L440.715 500.681L443.99 500.439L439.303 416.158Z" fill="#DBDCF1"/>
<path d="M378.04 431.959L379.446 455.732H431.945L430.538 431.959H378.04Z" fill="#DBDCF1"/>
<path d="M444.132 432.823L444.741 442.765H466.631L466.022 432.823H444.132Z" fill="#DBDCF1"/>
<path d="M445.538 453.895L446.147 463.837H468.037L467.428 453.895H445.538Z" fill="#DBDCF1"/>
<path d="M446.944 474.967L447.553 484.909H469.444L468.834 474.967H446.944Z" fill="#DBDCF1"/>
<path d="M379.915 466.539L381.321 490.312H433.82L432.413 466.539H379.915Z" fill="#DBDCF1"/>
<path d="M397.258 423.044H378.04V425.745H397.258V423.044Z" fill="#DBDCF1"/>
<path d="M364.915 423.314H345.697V426.016H364.915V423.314Z" fill="#DBDCF1"/>
<path d="M365.384 430.878H346.165V433.58H365.384V430.878Z" fill="#DBDCF1"/>
<path d="M365.852 438.443H346.634V441.144H365.852V438.443Z" fill="#DBDCF1"/>
<path d="M366.321 446.007H347.103V448.708H366.321V446.007Z" fill="#DBDCF1"/>
<path d="M366.79 453.571H347.572V456.273H366.79V453.571Z" fill="#DBDCF1"/>
<path d="M455.85 423.854H443.663V426.556H455.85V423.854Z" fill="#DBDCF1"/>
<path d="M555.176 449.519L555.223 433.904C555.223 433.904 533.005 440.496 543.551 392.138C543.551 392.138 557.754 374.957 575.425 392.138L577.3 427.258L579.831 447.952L555.176 449.519Z" fill="#FCBB9D"/>
<path d="M586.909 392.354C588.738 372.687 579.316 375.011 579.316 375.011C569.847 359.396 565.066 368.689 565.066 368.689C557.098 360.476 554.613 368.419 554.613 368.419C546.785 364.691 545.379 372.687 545.379 372.687C538.02 371.066 538.442 379.063 538.442 379.063C535.676 379.603 535.114 383.764 535.207 385.439C535.864 396.137 542.473 396.947 546.129 396.569L546.973 409.59C547.067 410.833 548.098 411.643 549.129 411.265C549.738 411.049 550.16 410.455 550.301 409.752C550.348 409.59 550.348 409.428 550.348 409.32C551.145 404.673 557.66 401.107 558.598 409.32C558.598 409.32 559.301 419.91 554.473 420.126C554.473 420.126 559.676 432.769 572.05 430.122C574.113 429.69 587.659 425.745 586.581 398.568C587.003 394.948 586.909 392.354 586.909 392.354Z" fill="#373133"/>
<path d="M535.067 516.247L516.974 536.67C515.333 538.507 513.271 539.75 511.021 540.236L452.335 553.258L436.866 554.338C436.866 554.338 439.679 550.016 443.429 548.935H433.116L422.851 554.068C421.632 554.662 420.226 554.122 419.617 552.771C419.054 551.529 419.336 549.962 420.32 549.043L431.241 539.48C433.023 537.913 435.272 537.157 437.522 537.427L452.053 538.994L457.397 541.209L504.599 516.247L526.864 490.582L535.067 516.247Z" fill="#CC8772"/>
<path d="M431.476 754.198L422.054 778.349L418.07 788.561H400.445L404.945 773.486L410.617 754.522L431.476 754.198Z" fill="#FCBB9D"/>
<path d="M420.789 781.645C419.242 783.482 412.961 789.588 402.602 781.267C402.508 781.213 402.414 781.159 402.274 781.267L373.634 798.935C372.274 799.745 372.79 802.123 374.337 802.123H421.07C423.226 802.123 424.82 799.799 424.351 797.422L421.304 781.915C421.257 781.537 420.976 781.429 420.789 781.645Z" fill="#4F216C"/>
<path d="M500.849 754.198L494.334 778.511L491.662 788.561H474.037L476.428 774.567L479.99 753.981L500.849 754.198Z" fill="#FCBB9D"/>
<path d="M500.849 754.198L494.334 778.511L476.428 774.567L479.99 753.981L500.849 754.198Z" fill="#E6A68A"/>
<path d="M493.443 781.645C491.896 783.482 485.615 789.588 475.256 781.267C475.162 781.213 475.069 781.159 474.928 781.267L446.288 798.935C444.929 799.745 445.444 802.123 446.991 802.123H493.724C495.88 802.123 497.474 799.799 497.005 797.422L493.959 781.915C493.912 781.537 493.631 781.429 493.443 781.645Z" fill="#4F216C"/>
<path d="M494.99 615.393L473.662 770.731L504.599 772.892L539.989 615.393H494.99Z" fill="#311547"/>
<path d="M431.476 754.198L422.054 778.349L404.945 773.486L410.617 754.522L431.476 754.198Z" fill="#E6A68A"/>
<path d="M523.349 520.029L512.661 530.403L507.411 535.482C506.146 536.724 504.646 537.535 503.052 537.967L431.007 556.77C425.289 557.904 419.476 555.149 415.304 552.339C413.898 552.069 412.539 551.853 411.226 551.637C409.023 556.986 402.883 558.985 402.883 558.985L405.508 548.017C405.883 546.504 406.727 545.261 407.898 544.505L417.132 538.453C419.429 536.94 422.195 536.886 424.539 538.183L427.913 540.074L491.709 514.788L501.318 502.577L506.568 495.877L523.349 520.029Z" fill="#FCBB9D"/>
<path d="M523.349 520.029L512.661 530.403L501.318 502.685L506.568 495.985L523.349 520.029Z" fill="#E6A68A"/>
<path d="M535.208 574.33L530.051 581.894L480.6 588.756C468.037 590.485 457.397 600.21 453.038 613.88L403.82 767.489L437.101 773.432L489.225 643.921C489.225 643.921 615.924 667.64 601.862 591.565L535.208 574.33Z" fill="#4F216C"/>
<path d="M545.848 445.683C545.52 445.791 534.645 451.086 528.552 460.379C518.146 476.264 502.911 499.335 502.911 499.335L519.692 525.432L527.333 516.679L526.395 561.524L521.005 582.164C521.005 582.164 529.817 589.944 537.411 594.051C567.41 610.26 607.721 603.776 607.721 603.776L602.847 495.553C602.847 495.553 604.112 457.353 590.847 445.467C590.847 445.467 574.863 436.011 545.848 445.683Z" fill="#F1884F"/>
<path d="M534.679 509.764L519.205 524.903L520.115 526.139L535.589 511L534.679 509.764Z" fill="#373133"/>
<path d="M557.332 698.384H549.223V762.842H557.332V698.384Z" fill="#DBDCF1"/>
<path d="M542.614 665.209V692.224C542.614 699.032 547.395 704.543 553.301 704.543C559.207 704.543 563.988 699.032 563.988 692.224V665.209H542.614Z" fill="#DBDCF1"/>
<path d="M519.786 656.51V658.671C519.786 663.696 523.302 667.749 527.661 667.749H589.675C594.034 667.749 597.55 663.696 597.55 658.671V656.51H519.786Z" fill="#DBDCF1"/>
<path d="M549.035 643.867V660.13H607.909C611.799 660.13 614.94 656.51 614.94 652.026C614.94 647.541 611.799 643.921 607.909 643.921H549.035V643.867Z" fill="#D34848"/>
<path d="M498.88 651.972C498.88 656.456 502.021 660.076 505.911 660.076H547.817C551.707 660.076 554.848 656.456 554.848 651.972C554.848 647.487 551.707 643.867 547.817 643.867H505.911C502.021 643.867 498.88 647.487 498.88 651.972Z" fill="#EE504F"/>
<path d="M498.927 778.727L537.973 766.625V766.462C537.973 756.791 544.77 748.957 553.16 748.957C561.551 748.957 568.347 756.791 568.347 766.462V767.327L605.096 778.673C607.393 779.376 608.8 782.023 608.284 784.725C607.768 787.426 605.472 789.155 603.128 788.615L565.113 780.186H552.879H551.238H538.957L500.943 788.615C498.599 789.155 496.302 787.426 495.787 784.725C495.271 782.077 496.63 779.43 498.927 778.727Z" fill="#DBDCF1"/>
<path d="M596.097 802.069C600.006 802.069 603.175 798.416 603.175 793.91C603.175 789.404 600.006 785.751 596.097 785.751C592.188 785.751 589.019 789.404 589.019 793.91C589.019 798.416 592.188 802.069 596.097 802.069Z" fill="#373133"/>
<path d="M596.097 798.449C598.271 798.449 600.034 796.417 600.034 793.91C600.034 791.403 598.271 789.371 596.097 789.371C593.922 789.371 592.159 791.403 592.159 793.91C592.159 796.417 593.922 798.449 596.097 798.449Z" fill="#AFAFD5"/>
<path d="M508.115 802.069C512.024 802.069 515.193 798.416 515.193 793.91C515.193 789.404 512.024 785.751 508.115 785.751C504.206 785.751 501.037 789.404 501.037 793.91C501.037 798.416 504.206 802.069 508.115 802.069Z" fill="#373133"/>
<path d="M508.115 798.449C510.289 798.449 512.052 796.417 512.052 793.91C512.052 791.403 510.289 789.371 508.115 789.371C505.94 789.371 504.177 791.403 504.177 793.91C504.177 796.417 505.94 798.449 508.115 798.449Z" fill="#AFAFD5"/>
<path d="M204.278 275H322.26C324.65 275 326.619 277.269 326.619 280.025V379.927C326.619 382.683 324.65 384.952 322.26 384.952H204.278C201.888 384.952 199.919 382.683 199.919 379.927V280.025C199.919 277.269 201.888 275 204.278 275Z" fill="#DBDCF1"/>
<path d="M281.714 300.016H206.153V347.779H281.714V300.016Z" fill="white"/>
<path d="M298.495 283.969H219.606V289.75H298.495V283.969Z" fill="#AFAFD5"/>
<path d="M309.323 289.858C310.746 289.858 311.901 288.528 311.901 286.887C311.901 285.246 310.746 283.915 309.323 283.915C307.899 283.915 306.745 285.246 306.745 286.887C306.745 288.528 307.899 289.858 309.323 289.858Z" fill="#AFAFD5"/>
<path d="M316.119 289.858C317.543 289.858 318.697 288.528 318.697 286.887C318.697 285.246 317.543 283.915 316.119 283.915C314.696 283.915 313.541 285.246 313.541 286.887C313.541 288.528 314.696 289.858 316.119 289.858Z" fill="#AFAFD5"/>
<path d="M303.51 299.908H286.214V315.739H303.51V299.908Z" fill="#AFAFD5"/>
<path d="M317.151 299.908H306.745V302.718H317.151V299.908Z" fill="#AFAFD5"/>
<path d="M322.26 306.284H306.745V309.093H322.26V306.284Z" fill="#AFAFD5"/>
<path d="M317.151 321.52H306.745V324.33H317.151V321.52Z" fill="#AFAFD5"/>
<path d="M322.26 327.896H306.745V330.706H322.26V327.896Z" fill="#AFAFD5"/>
<path d="M317.151 342.754H306.745V345.564H317.151V342.754Z" fill="#AFAFD5"/>
<path d="M322.26 349.13H306.745V351.94H322.26V349.13Z" fill="#AFAFD5"/>
<path d="M317.151 363.988H306.745V366.798H317.151V363.988Z" fill="#AFAFD5"/>
<path d="M322.26 370.364H306.745V373.174H322.26V370.364Z" fill="#AFAFD5"/>
<path d="M303.51 321.358H286.214V337.189H303.51V321.358Z" fill="#AFAFD5"/>
<path d="M303.51 342.862H286.214V358.693H303.51V342.862Z" fill="#AFAFD5"/>
<path d="M303.51 364.151H286.214V379.981H303.51V364.151Z" fill="#AFAFD5"/>
<path d="M257.808 352.318H205.638V357.397H257.808V352.318Z" fill="#AFAFD5"/>
<path d="M211.263 374.903C214.369 374.903 216.888 372 216.888 368.419C216.888 364.838 214.369 361.935 211.263 361.935C208.156 361.935 205.638 364.838 205.638 368.419C205.638 372 208.156 374.903 211.263 374.903Z" fill="#AFAFD5"/>
<path d="M240.418 361.989H221.669V366.69H240.418V361.989Z" fill="#AFAFD5"/>
<path d="M237.512 313.956V333.785L250.402 323.844L237.512 313.956Z" fill="#E8315D"/>
<path d="M215.294 283.969H206.107V289.912H215.294V283.969Z" fill="#AFAFD5"/>
<path d="M397.586 333.083H358.587C357.696 333.083 356.947 333.947 356.947 334.974V369.175C356.947 370.202 357.696 371.066 358.587 371.066H381.837L392.899 382.251V371.066H397.539C398.43 371.066 399.18 370.202 399.18 369.175V334.974C399.227 333.947 398.477 333.083 397.586 333.083Z" fill="#DBDCF1"/>
<path d="M373.727 342.592V361.179L386.336 351.886L373.727 342.592Z" fill="#E8315D"/>
<path d="M500.896 308.175C500.896 306.554 499.724 305.203 498.318 305.203H444.272C442.866 305.203 441.694 306.554 441.694 308.175V357.235C441.694 358.856 442.866 360.206 444.272 360.206H449.71V374.795L460.772 360.206H498.318C499.724 360.206 500.896 358.856 500.896 357.235V308.175Z" fill="#DBDCF1"/>
<path d="M492.365 320.494H451.116V324.816H492.365V320.494Z" fill="#AFAFD5"/>
<path d="M492.412 329.733H451.163V334.055H492.412V329.733Z" fill="#AFAFD5"/>
<path d="M492.412 339.026H451.163V343.349H492.412V339.026Z" fill="#AFAFD5"/>
<path d="M137.108 413.751V431.635C137.108 433.85 138.655 435.579 140.53 435.579H261.511C263.433 435.579 264.933 433.796 264.933 431.635V413.751C264.933 411.535 263.386 409.806 261.511 409.806H140.53C138.655 409.806 137.108 411.589 137.108 413.751Z" fill="#DBDCF1"/>
<path d="M137.108 446.817V464.702C137.108 466.917 138.655 468.646 140.53 468.646H261.511C263.433 468.646 264.933 466.863 264.933 464.702V446.817C264.933 444.602 263.386 442.873 261.511 442.873H140.53C138.655 442.873 137.108 444.656 137.108 446.817Z" fill="#DBDCF1"/>
<path d="M223.59 421.315H144.374V424.07H223.59V421.315Z" fill="#AFAFD5"/>
<path d="M149.717 455.786L152.905 457.84L151.827 460.055L148.545 457.84L148.592 462H146.436L146.483 457.84L143.249 460.001L142.124 457.786L145.358 455.732L142.124 453.679L143.249 451.464L146.483 453.679L146.436 449.519H148.592L148.545 453.679L151.827 451.464L152.905 453.679L149.717 455.786Z" fill="#AFAFD5"/>
<path d="M167.342 455.786L170.529 457.84L169.451 460.055L166.17 457.84L166.217 462H164.061L164.108 457.84L160.873 460.001L159.748 457.786L162.983 455.732L159.748 453.679L160.873 451.464L164.108 453.679L164.061 449.519H166.217L166.17 453.679L169.451 451.464L170.529 453.679L167.342 455.786Z" fill="#AFAFD5"/>
<path d="M184.966 455.786L188.154 457.84L187.076 460.055L183.795 457.84L183.841 462H181.685L181.732 457.84L178.498 460.001L177.373 457.786L180.607 455.732L177.373 453.679L178.498 451.464L181.732 453.679L181.685 449.519H183.841L183.795 453.679L187.076 451.464L188.154 453.679L184.966 455.786Z" fill="#AFAFD5"/>
<path d="M202.591 455.786L205.778 457.84L204.7 460.055L201.419 457.84L201.466 462H199.31L199.357 457.84L196.122 460.001L194.997 457.786L198.232 455.732L194.997 453.679L196.122 451.464L199.357 453.679L199.31 449.519H201.466L201.419 453.679L204.7 451.464L205.778 453.679L202.591 455.786Z" fill="#AFAFD5"/>
<path d="M220.403 455.786L223.59 457.84L222.512 460.055L219.231 457.84L219.278 462H217.122L217.169 457.84L213.934 460.001L212.81 457.786L216.044 455.732L212.81 453.679L213.934 451.464L217.169 453.679L217.122 449.519H219.278L219.231 453.679L222.512 451.464L223.59 453.679L220.403 455.786Z" fill="#AFAFD5"/>
<path d="M716 801.798H81.3284V804.5H716V801.798Z" fill="#373133"/>
</svg>
